<?xml version="1.0" encoding="utf-8"?>
<!-- Generator: Adobe Illustrator 18.1.0, SVG Export Plug-In . SVG Version: 6.00 Build 0)  -->
<svg version="1.1" id="Layer_1" xmlns="http://www.w3.org/2000/svg" xmlns:xlink="http://www.w3.org/1999/xlink" x="0px" y="0px"
	 viewBox="0 0 32 32" enable-background="new 0 0 32 32" xml:space="preserve">
<g>
	<path d="M23.2,31.5H8.9c-2.4,0-4.3-1.9-4.5-4.3L3.5,8.1c0-0.4,0.1-0.8,0.4-1.1C4.2,6.7,4.6,6.5,5,6.5h22c0.8,0,1.5,0.7,1.5,1.5
		S27.8,9.5,27,9.5H6.6L7.4,27c0.1,0.8,0.7,1.5,1.5,1.5h14.3c0.8,0,1.5-0.7,1.5-1.5l0.6-14.1c0-0.8,0.7-1.5,1.6-1.4
		c0.8,0,1.5,0.7,1.4,1.6l-0.6,14.1C27.5,29.6,25.6,31.5,23.2,31.5z"/>
</g>
<g>
	<path d="M30,9.5H2C1.2,9.5,0.5,8.8,0.5,8S1.2,6.5,2,6.5h28c0.8,0,1.5,0.7,1.5,1.5S30.8,9.5,30,9.5z"/>
</g>
<g>
	<path d="M23,9.5C23,9.5,23,9.5,23,9.5H9C8.6,9.5,8.1,9.3,7.9,9C7.6,8.6,7.4,8.2,7.5,7.7l0.6-3.5c0.3-2.1,2.2-3.7,4.4-3.7h6.9
		c2.2,0,4,1.5,4.5,3.7l0.6,3.3c0.1,0.2,0.1,0.3,0.1,0.5C24.5,8.8,23.8,9.5,23,9.5z M10.8,6.5h10.4l-0.3-1.7
		c-0.2-0.7-0.8-1.3-1.5-1.3h-6.9c-0.6,0-1.3,0.4-1.4,1.2L10.8,6.5z"/>
</g>
<g>
	<path d="M12,24.5c-0.8,0-1.5-0.7-1.5-1.5v-8c0-0.8,0.7-1.5,1.5-1.5s1.5,0.7,1.5,1.5v8C13.5,23.8,12.8,24.5,12,24.5z"/>
</g>
<g>
	<path d="M20,24.5c-0.8,0-1.5-0.7-1.5-1.5v-8c0-0.8,0.7-1.5,1.5-1.5s1.5,0.7,1.5,1.5v8C21.5,23.8,20.8,24.5,20,24.5z"/>
</g>
</svg>
